<svg width="108" height="96" viewBox="0 0 108 96" fill="none" xmlns="http://www.w3.org/2000/svg">
<path d="M86.9798 3.46945C91.1533 1.83725 95.5548 -1.03826 99.7872 0.382641C103.698 1.69546 107.939 5.8699 107.999 10.5262C108.073 16.1581 102.181 19.4874 100.103 24.595C99.0088 27.2846 99.2751 30.3544 98.7497 33.259C98.1398 36.6304 98.5226 40.4397 96.7355 43.2115C94.9413 45.9944 91.972 47.8103 88.9906 48.396C86.0711 48.9696 83.327 46.1999 80.3713 46.4264C76.8561 46.6958 73.7448 50.8991 70.3495 49.8246C67.1625 48.8161 66.0939 44.2002 64.024 41.2533C61.9397 38.2859 57.622 36.0576 58.0266 32.281C58.5094 27.7732 65.8445 26.9334 66.0436 22.3976C66.2831 16.9451 56.2425 12.6792 59.0802 8.28674C62.0017 3.76454 68.5843 10.8329 73.5036 10.8503C75.62 10.8578 77.4842 9.40377 79.3926 8.35851C82.0398 6.90865 84.2023 4.55564 86.9798 3.46945Z" fill="#F5F5F5"/>
<path d="M46.5306 74.9798C48.1627 79.1533 51.0383 83.5548 49.6174 87.7872C48.3045 91.6976 44.1301 95.9385 39.4738 95.9993C33.8419 96.0728 30.5126 90.1814 25.405 88.1032C22.7154 87.0088 19.6456 87.2751 16.741 86.7497C13.3696 86.1398 9.56027 86.5226 6.78847 84.7355C4.00556 82.9413 2.18972 79.972 1.604 76.9906C1.03043 74.0711 3.80008 71.327 3.57356 68.3713C3.30415 64.8561 -0.899086 61.7448 0.175354 58.3495C1.1839 55.1625 5.79984 54.0939 8.74669 52.024C11.7141 49.9397 13.9424 45.622 17.719 46.0266C22.2268 46.5094 23.0666 53.8445 27.6024 54.0436C33.0549 54.2831 37.3208 44.2425 41.7133 47.0802C46.2355 50.0017 39.1671 56.5843 39.1497 61.5036C39.1422 63.62 40.5962 65.4842 41.6415 67.3926C43.0913 70.0398 45.4444 72.2023 46.5306 74.9798Z" fill="#F5F5F5"/>
<path d="M70.1253 43.3023V30.0551C70.1253 29.676 69.9503 29.3256 69.7024 29.0484L54.8503 13.4524C54.5729 13.1608 54.179 13 53.7853 13H30.2378C25.8905 13 22.4181 16.5451 22.4181 20.8928V65.4198C22.4181 69.7674 25.8905 73.2544 30.2377 73.2544H48.825C52.3407 79.09 58.7312 82.9999 66.0111 82.9999C77.0697 82.9999 86.1006 74.0128 86.1006 62.9396C86.1156 53.2667 79.1706 45.1844 70.1253 43.3024V43.3023ZM55.2445 18.1212L65.2088 28.6107H58.7457C56.8199 28.6107 55.2443 27.0206 55.2443 25.0949L55.2445 18.1212ZM30.2377 70.3363C27.5098 70.3363 25.3362 68.1477 25.3362 65.4199V20.8928C25.3362 18.1499 27.5098 15.9181 30.2377 15.9181H52.3264V25.0947C52.3264 28.6398 55.2006 31.5286 58.7457 31.5286H67.2072V42.9228C66.7698 42.9083 66.4196 42.8644 66.0403 42.8644C60.9486 42.8644 56.2655 44.8196 52.7349 47.8834H34.2064C33.4037 47.8834 32.7473 48.5398 32.7473 49.342C32.7473 50.1448 33.4036 50.801 34.2064 50.801H50.0213C48.9852 52.2601 48.1243 53.7191 47.4537 55.3239H34.2062C33.4036 55.3239 32.7472 55.9803 32.7472 56.783C32.7472 57.5851 33.4034 58.2421 34.2062 58.2421H46.505C46.1403 59.7011 45.9506 61.3204 45.9506 62.9397C45.9506 65.5655 46.4611 68.1628 47.3803 70.3512H30.2377V70.3363ZM66.026 80.0966C56.572 80.0966 48.8832 72.4079 48.8832 62.9541C48.8832 53.5001 56.5572 45.8113 66.026 45.8113C75.4943 45.8113 83.1681 53.5001 83.1681 62.9541C83.1681 72.4079 75.4798 80.0966 66.026 80.0966Z" fill="#66CDAA"/>
<path d="M34.2064 43.492H48.9853C49.7879 43.492 50.4443 42.8352 50.4443 42.0329C50.4443 41.2304 49.7881 40.574 48.9853 40.574H34.2064C33.4037 40.574 32.7473 41.2302 32.7473 42.0329C32.7473 42.8352 33.4036 43.492 34.2064 43.492ZM71.9636 61.5827H67.4994V57.0453C67.4994 56.2432 66.8426 55.5862 66.0404 55.5862C65.2378 55.5862 64.5815 56.2432 64.5815 57.0453V61.5827H60.044C59.2414 61.5827 58.585 62.2395 58.585 63.0418C58.585 63.8443 59.2412 64.5007 60.044 64.5007H64.5815V68.965C64.5815 69.7675 65.2377 70.4241 66.0404 70.4241C66.8426 70.4241 67.4994 69.7677 67.4994 68.965V64.5006H71.9637C72.7663 64.5006 73.4226 63.8443 73.4226 63.0417C73.4226 62.2394 72.7664 61.5826 71.9637 61.5826L71.9636 61.5827Z" fill="#66CDAA"/>
</svg>
