<svg width="108" height="96" viewBox="0 0 108 96" fill="none" xmlns="http://www.w3.org/2000/svg">
<path d="M86.9798 3.46945C91.1533 1.83725 95.5548 -1.03826 99.7872 0.382641C103.698 1.69546 107.939 5.8699 107.999 10.5262C108.073 16.1581 102.181 19.4874 100.103 24.595C99.0088 27.2846 99.2751 30.3544 98.7497 33.259C98.1398 36.6304 98.5226 40.4397 96.7355 43.2115C94.9413 45.9944 91.972 47.8103 88.9906 48.396C86.0711 48.9696 83.327 46.1999 80.3713 46.4264C76.8561 46.6958 73.7448 50.8991 70.3495 49.8246C67.1625 48.8161 66.0939 44.2002 64.024 41.2533C61.9397 38.2859 57.622 36.0576 58.0266 32.281C58.5094 27.7732 65.8445 26.9334 66.0436 22.3976C66.2831 16.9451 56.2425 12.6792 59.0802 8.28674C62.0017 3.76454 68.5843 10.8329 73.5036 10.8503C75.62 10.8578 77.4842 9.40377 79.3926 8.35851C82.0398 6.90865 84.2023 4.55564 86.9798 3.46945Z" fill="#F5F5F5"/>
<path d="M46.5306 74.9798C48.1627 79.1533 51.0383 83.5548 49.6174 87.7872C48.3045 91.6976 44.1301 95.9385 39.4738 95.9993C33.8419 96.0728 30.5126 90.1814 25.405 88.1032C22.7154 87.0088 19.6456 87.2751 16.741 86.7497C13.3696 86.1398 9.56027 86.5226 6.78847 84.7355C4.00556 82.9413 2.18972 79.972 1.604 76.9906C1.03043 74.0711 3.80008 71.327 3.57356 68.3713C3.30415 64.8561 -0.899086 61.7448 0.175354 58.3495C1.1839 55.1625 5.79984 54.0939 8.74669 52.024C11.7141 49.9397 13.9424 45.622 17.719 46.0266C22.2268 46.5094 23.0666 53.8445 27.6024 54.0436C33.0549 54.2831 37.3208 44.2425 41.7133 47.0802C46.2355 50.0017 39.1671 56.5843 39.1497 61.5036C39.1422 63.62 40.5962 65.4842 41.6415 67.3926C43.0913 70.0398 45.4444 72.2023 46.5306 74.9798Z" fill="#F5F5F5"/>
<path d="M84.9253 78.8984H79.5149V15.0508C79.5149 13.9182 78.5967 13 77.4642 13H30.5118C29.3792 13 28.461 13.9182 28.461 15.0508V78.8984H23.0508C21.9182 78.8984 21 79.8166 21 80.9492C21 82.0818 21.9182 83 23.0508 83H84.9254C86.058 83 86.9762 82.0818 86.9762 80.9492C86.9762 79.8166 86.058 78.8984 84.9253 78.8984ZM46.9975 78.8984V64.9174H60.9785V78.8984H46.9975ZM65.08 78.8984V62.8667C65.08 61.7341 64.1618 60.8159 63.0293 60.8159H44.9467C43.8141 60.8159 42.8959 61.7341 42.8959 62.8667V78.8984H32.5626V17.1016H75.4134V78.8984H65.08Z" fill="#66CDAA"/>
<path d="M49.5785 22.0657H39.5286C38.396 22.0657 37.4778 22.9839 37.4778 24.1165V34.1664C37.4778 35.299 38.396 36.2172 39.5286 36.2172H49.5785C50.7111 36.2172 51.6293 35.299 51.6293 34.1664V24.1165C51.6293 22.9839 50.7111 22.0657 49.5785 22.0657ZM47.5277 32.1156H41.5793V26.1672H47.5277V32.1156ZM68.4473 22.0657H58.3974C57.2648 22.0657 56.3466 22.9839 56.3466 24.1165V34.1664C56.3466 35.299 57.2648 36.2172 58.3974 36.2172H68.4473C69.5799 36.2172 70.4981 35.299 70.4981 34.1664V24.1165C70.4981 22.9839 69.5799 22.0657 68.4473 22.0657ZM66.3965 32.1156H60.4482V26.1672H66.3965V32.1156ZM49.5785 41.1578H39.5286C38.396 41.1578 37.4778 42.076 37.4778 43.2085V53.2585C37.4778 54.391 38.396 55.3092 39.5286 55.3092H49.5785C50.7111 55.3092 51.6293 54.391 51.6293 53.2585V43.2085C51.6293 42.076 50.7111 41.1578 49.5785 41.1578ZM47.5277 51.2077H41.5793V45.2593H47.5277V51.2077ZM68.4473 41.1578H58.3974C57.2648 41.1578 56.3466 42.076 56.3466 43.2085V53.2585C56.3466 54.391 57.2648 55.3092 58.3974 55.3092H68.4473C69.5799 55.3092 70.4981 54.391 70.4981 53.2585V43.2085C70.4981 42.076 69.5799 41.1578 68.4473 41.1578ZM66.3965 51.2077H60.4482V45.2593H66.3965V51.2077Z" fill="#66CDAA"/>
</svg>
