<svg width="108" height="96" viewBox="0 0 108 96" fill="none" xmlns="http://www.w3.org/2000/svg">
<path d="M86.9798 3.46945C91.1533 1.83725 95.5548 -1.03826 99.7872 0.382641C103.698 1.69546 107.939 5.8699 107.999 10.5262C108.073 16.1581 102.181 19.4874 100.103 24.595C99.0088 27.2846 99.2751 30.3544 98.7497 33.259C98.1398 36.6304 98.5226 40.4397 96.7355 43.2115C94.9413 45.9944 91.972 47.8103 88.9906 48.396C86.0711 48.9696 83.327 46.1999 80.3713 46.4264C76.8561 46.6958 73.7448 50.8991 70.3495 49.8246C67.1625 48.8161 66.0939 44.2002 64.024 41.2533C61.9397 38.2859 57.622 36.0576 58.0266 32.281C58.5094 27.7732 65.8445 26.9334 66.0436 22.3976C66.2831 16.9451 56.2425 12.6792 59.0802 8.28674C62.0017 3.76454 68.5843 10.8329 73.5036 10.8503C75.62 10.8578 77.4842 9.40377 79.3926 8.35851C82.0398 6.90865 84.2023 4.55564 86.9798 3.46945Z" fill="#F5F5F5"/>
<path d="M46.5306 74.9798C48.1627 79.1533 51.0383 83.5548 49.6174 87.7872C48.3045 91.6976 44.1301 95.9385 39.4738 95.9993C33.8419 96.0728 30.5126 90.1814 25.405 88.1032C22.7154 87.0088 19.6456 87.2751 16.741 86.7497C13.3696 86.1398 9.56027 86.5226 6.78847 84.7355C4.00556 82.9413 2.18972 79.972 1.604 76.9906C1.03043 74.0711 3.80008 71.327 3.57356 68.3713C3.30415 64.8561 -0.899086 61.7448 0.175354 58.3495C1.1839 55.1625 5.79984 54.0939 8.74669 52.024C11.7141 49.9397 13.9424 45.622 17.719 46.0266C22.2268 46.5094 23.0666 53.8445 27.6024 54.0436C33.0549 54.2831 37.3208 44.2425 41.7133 47.0802C46.2355 50.0017 39.1671 56.5843 39.1497 61.5036C39.1422 63.62 40.5962 65.4842 41.6415 67.3926C43.0913 70.0398 45.4444 72.2023 46.5306 74.9798Z" fill="#F5F5F5"/>
<path d="M26 38.9091H83M77.9107 73H31.0893C29.7395 73 28.445 72.4014 27.4906 71.3358C26.5362 70.2703 26 68.8251 26 67.3182V28.6818C26 27.1749 26.5362 25.7297 27.4906 24.6642C28.445 23.5986 29.7395 23 31.0893 23H40.7449C41.7498 23 42.7322 23.3322 43.5682 23.9545L47.1104 26.5909C47.9464 27.2133 48.9288 27.5454 49.9336 27.5455H77.9107C79.2605 27.5455 80.555 28.1441 81.5094 29.2096C82.4638 30.2752 83 31.7204 83 33.2273V67.3182C83 68.8251 82.4638 70.2703 81.5094 71.3358C80.555 72.4014 79.2605 73 77.9107 73Z" stroke="#66CDAA" stroke-width="4" stroke-linecap="round" stroke-linejoin="round"/>
</svg>
