<svg width="108" height="96" viewBox="0 0 108 96" fill="none" xmlns="http://www.w3.org/2000/svg">
<path d="M86.9798 3.46945C91.1533 1.83725 95.5548 -1.03826 99.7872 0.382641C103.698 1.69546 107.939 5.8699 107.999 10.5262C108.073 16.1581 102.181 19.4874 100.103 24.595C99.0088 27.2846 99.2751 30.3544 98.7497 33.259C98.1398 36.6304 98.5226 40.4397 96.7355 43.2115C94.9413 45.9944 91.972 47.8103 88.9906 48.396C86.0711 48.9696 83.327 46.1999 80.3713 46.4264C76.8561 46.6958 73.7448 50.8991 70.3495 49.8246C67.1625 48.8161 66.0939 44.2002 64.024 41.2533C61.9397 38.2859 57.622 36.0576 58.0266 32.281C58.5094 27.7732 65.8445 26.9334 66.0436 22.3976C66.2831 16.9451 56.2425 12.6792 59.0802 8.28674C62.0017 3.76454 68.5843 10.8329 73.5036 10.8503C75.62 10.8578 77.4842 9.40377 79.3926 8.35851C82.0398 6.90865 84.2023 4.55564 86.9798 3.46945Z" fill="#F5F5F5"/>
<path d="M46.5306 74.9798C48.1627 79.1533 51.0383 83.5548 49.6174 87.7872C48.3045 91.6976 44.1301 95.9385 39.4738 95.9993C33.8419 96.0728 30.5126 90.1814 25.405 88.1032C22.7154 87.0088 19.6456 87.2751 16.741 86.7497C13.3696 86.1398 9.56027 86.5226 6.78847 84.7355C4.00556 82.9413 2.18972 79.972 1.604 76.9906C1.03043 74.0711 3.80008 71.327 3.57356 68.3713C3.30415 64.8561 -0.899086 61.7448 0.175354 58.3495C1.1839 55.1625 5.79984 54.0939 8.74669 52.024C11.7141 49.9397 13.9424 45.622 17.719 46.0266C22.2268 46.5094 23.0666 53.8445 27.6024 54.0436C33.0549 54.2831 37.3208 44.2425 41.7133 47.0802C46.2355 50.0017 39.1671 56.5843 39.1497 61.5036C39.1422 63.62 40.5962 65.4842 41.6415 67.3926C43.0913 70.0398 45.4444 72.2023 46.5306 74.9798Z" fill="#F5F5F5"/>
<g clip-path="url(#clip0_0_1)">
<path d="M55.72 54.6117C54.7384 54.6117 53.9427 55.4074 53.9427 56.389C53.9419 60.9897 50.2118 64.7186 45.611 64.7179C41.0103 64.7171 37.2813 60.987 37.2821 56.3863C37.2829 51.7861 41.0122 48.0574 45.6124 48.0574C46.594 48.0574 47.3897 47.2617 47.3897 46.28C47.3897 45.2984 46.594 44.5027 45.6124 44.5027C39.0496 44.5072 33.7306 49.8262 33.7261 56.389C33.7261 62.9533 39.0474 68.2747 45.6117 68.2747C52.176 68.2747 57.4974 62.9533 57.4974 56.389C57.4974 55.4074 56.7017 54.6117 55.72 54.6117Z" fill="#66CDAA"/>
<path d="M69.8402 60.4769C69.6707 59.51 68.7495 58.8636 67.7826 59.0332L64.0625 59.6853C63.7292 59.7437 63.4195 59.8961 63.1698 60.1245C62.9201 60.3528 62.7408 60.6478 62.6529 60.9746C62.2563 62.4468 61.6694 63.861 60.907 65.1814C60.7368 65.4752 60.6544 65.8116 60.6694 66.1508C60.6844 66.49 60.7963 66.8179 60.9918 67.0955L63.1629 70.1894C63.31 70.3981 63.3786 70.6522 63.3566 70.9066C63.3346 71.161 63.2234 71.3995 63.0426 71.5798L60.8113 73.8111C60.6312 73.9917 60.3931 74.103 60.139 74.1253C59.8849 74.1475 59.631 74.0794 59.4223 73.9328L56.3283 71.7617C56.0507 71.5662 55.7229 71.4543 55.3837 71.4392C55.0445 71.4242 54.7081 71.5067 54.4143 71.6769C53.0939 72.4394 51.6797 73.0263 50.2074 73.4228C49.8806 73.5107 49.5857 73.69 49.3573 73.9397C49.1289 74.1894 48.9766 74.4991 48.9182 74.8324L48.2578 78.5484C48.214 78.7997 48.0829 79.0275 47.8875 79.1916C47.6922 79.3557 47.4452 79.4455 47.19 79.4453H44.0332C43.7781 79.4455 43.5311 79.3557 43.3357 79.1916C43.1404 79.0275 43.0092 78.7997 42.9654 78.5484L42.3133 74.8296C42.2549 74.4963 42.1025 74.1866 41.8741 73.9369C41.6457 73.6872 41.3508 73.5079 41.024 73.4201C39.5514 73.0234 38.1367 72.4365 36.8158 71.6742C36.522 71.504 36.1856 71.4215 35.8464 71.4365C35.5072 71.4515 35.1794 71.5634 34.9018 71.7589L31.8133 73.9287C31.6046 74.0758 31.3505 74.1444 31.0961 74.1224C30.8417 74.1004 30.6032 73.9891 30.4229 73.8083L28.1916 71.5771C28.0112 71.3969 27.9001 71.1588 27.8778 70.9047C27.8556 70.6507 27.9236 70.3969 28.0699 70.188L30.241 67.0941C30.4365 66.8165 30.5484 66.4887 30.5634 66.1495C30.5784 65.8103 30.496 65.4738 30.3258 65.18C29.563 63.8598 28.9761 62.4455 28.5799 60.9732C28.492 60.6464 28.3127 60.3515 28.063 60.1231C27.8133 59.8947 27.5036 59.7424 27.1703 59.6839L23.4516 59.0318C23.2007 58.9881 22.9733 58.8573 22.8092 58.6625C22.6452 58.4678 22.5551 58.2214 22.5547 57.9667V54.8099C22.5544 54.5548 22.6443 54.3078 22.8084 54.1124C22.9725 53.9171 23.2002 53.7859 23.4516 53.7421L27.1703 53.09C27.5036 53.0316 27.8133 52.8792 28.063 52.6508C28.3127 52.4224 28.492 52.1275 28.5799 51.8007C28.9758 50.327 29.5627 48.9113 30.3258 47.5898C30.496 47.296 30.5784 46.9596 30.5634 46.6204C30.5484 46.2812 30.4365 45.9534 30.241 45.6757L28.0713 42.5914C27.9242 42.3826 27.8555 42.1286 27.8776 41.8742C27.8996 41.6197 28.0108 41.3813 28.1916 41.2009L30.4242 38.9683C30.6045 38.7879 30.8427 38.6768 31.0968 38.6548C31.3509 38.6328 31.6047 38.7012 31.8133 38.848L34.9072 41.0191C35.1848 41.2146 35.5126 41.3265 35.8519 41.3415C36.1911 41.3565 36.5275 41.2741 36.8213 41.1039C38.1421 40.3414 39.5568 39.7544 41.0295 39.358C41.3563 39.2701 41.6512 39.0908 41.8796 38.8411C42.108 38.5914 42.2603 38.2817 42.3188 37.9484L42.9709 34.2296C43.1404 33.2628 42.494 32.3416 41.5272 32.172C40.5603 32.0025 39.6391 32.6489 39.4695 33.6158L39.0074 36.2544C37.9938 36.5893 37.007 37.0006 36.0557 37.4849L33.8613 35.9455C32.0178 34.6483 29.5081 34.867 27.9168 36.4636L25.6773 38.688C24.0822 40.2801 23.8642 42.7891 25.1606 44.6326L26.7 46.8269C26.2156 47.7787 25.8042 48.7659 25.4695 49.78L22.8309 50.2421C20.6136 50.6315 18.9973 52.5587 19 54.8099V57.9667C18.9971 60.2201 20.6164 62.1488 22.8363 62.5359L25.475 62.9994C25.8097 64.0131 26.2211 64.9998 26.7055 65.9511L25.1606 68.1455C23.8646 69.9893 24.0832 72.4982 25.6787 74.09L27.9113 76.3212C29.5031 77.9169 32.0125 78.1349 33.8559 76.838L36.0434 75.2986C36.9948 75.7828 37.9815 76.1941 38.9951 76.5291L39.4572 79.1677C39.8466 81.3886 41.7784 83.0065 44.0332 83H47.19C49.444 83.0027 51.3727 81.3827 51.7592 79.1623L52.2227 76.5236C53.2363 76.1887 54.2231 75.7774 55.1744 75.2931L57.3701 76.8326C59.2138 78.1292 61.7231 77.9105 63.3147 76.3144L65.5473 74.0818C67.1428 72.49 67.3614 69.981 66.0654 68.1373L64.5273 65.9498C65.0116 64.9984 65.4229 64.0116 65.7578 62.998L68.3965 62.5345C69.3634 62.365 70.0098 61.4438 69.8402 60.4769Z" fill="#66CDAA"/>
<path d="M85.664 29.1328L83.8046 28.8074C83.5723 28.137 83.2984 27.4817 82.9843 26.8455L84.078 25.3047C85.2049 23.7023 85.015 21.5215 83.6282 20.1381L81.8673 18.3731C80.4832 16.9834 78.2991 16.7929 76.6952 17.9219L75.1489 19.0061C74.5128 18.6919 73.8575 18.4179 73.187 18.1857L72.8671 16.3346C72.5305 14.4044 70.8534 12.9969 68.8941 13H66.4071C64.448 12.9975 62.7714 14.4057 62.4355 16.3359L62.1087 18.1953C61.4382 18.4275 60.783 18.7014 60.1468 19.0156L58.6005 17.9219C56.9982 16.795 54.8174 16.9849 53.4339 18.3717L51.6757 20.1326C50.2861 21.5168 50.0955 23.7008 51.2245 25.3047L52.3087 26.851C51.9945 27.4872 51.7205 28.1424 51.4884 28.8129L49.6358 29.1328C47.7062 29.4694 46.2988 31.1457 46.3013 33.1045V35.5914C46.2974 37.5511 47.7052 39.2291 49.6358 39.5658L51.4939 39.8912C51.726 40.5617 52 41.217 52.3142 41.8531L51.2286 43.3994C50.1016 45.0012 50.2903 47.1816 51.6757 48.566L53.4339 50.3242C54.8176 51.7118 56.9992 51.9017 58.6019 50.774L60.1523 49.6898C60.7885 50.0039 61.4437 50.2779 62.1142 50.5102L62.4409 52.3695C62.7775 54.2992 64.4538 55.7066 66.4126 55.7041H68.8995C70.8588 55.7041 72.5338 54.2936 72.8671 52.3627L73.1925 50.5047C73.863 50.2725 74.5182 49.9986 75.1544 49.6844L76.6952 50.7754C78.2989 51.905 80.4834 51.7144 81.8673 50.3242L83.6269 48.5647C85.0128 47.1815 85.2031 45.0019 84.078 43.3994L82.9911 41.8477C83.3052 41.2114 83.5791 40.5562 83.8114 39.8857L85.6708 39.559C87.5962 39.2205 89.0002 37.5477 88.9999 35.5928V33.1059C89.0031 31.1461 87.5947 29.4689 85.664 29.1328ZM85.4452 35.5969C85.4453 35.7092 85.4057 35.818 85.3334 35.9041C85.2611 35.9901 85.1608 36.0479 85.0501 36.0672L82.1189 36.5813C81.7855 36.6397 81.4758 36.792 81.2261 37.0204C80.9764 37.2488 80.7971 37.5437 80.7093 37.8705C80.4052 38.9992 79.9553 40.0834 79.3708 41.0957C79.2006 41.3895 79.1181 41.7259 79.1331 42.0651C79.1482 42.4044 79.2601 42.7322 79.4556 43.0098L81.1659 45.4488C81.2307 45.5408 81.2608 45.6527 81.2511 45.7648C81.2413 45.8769 81.1923 45.9819 81.1126 46.0613L79.3544 47.8195C79.2741 47.8967 79.1692 47.9433 79.0581 47.9513C78.947 47.9593 78.8366 47.9282 78.746 47.8633L76.3028 46.1543C76.0252 45.9588 75.6974 45.8469 75.3582 45.8319C75.019 45.8169 74.6826 45.8993 74.3888 46.0695C73.3765 46.6541 72.2923 47.1041 71.1636 47.408C70.8374 47.497 70.5434 47.6771 70.316 47.9272C70.0886 48.1774 69.9373 48.4872 69.8798 48.8203L69.3657 51.7516C69.3464 51.8623 69.2886 51.9626 69.2026 52.0349C69.1166 52.1071 69.0078 52.1467 68.8954 52.1467H66.4071C66.2948 52.1467 66.186 52.1071 66.0999 52.0349C66.0139 51.9626 65.9561 51.8623 65.9368 51.7516L65.4214 48.8203C65.363 48.487 65.2106 48.1773 64.9822 47.9276C64.7538 47.6779 64.4589 47.4986 64.1321 47.4107C63.003 47.1067 61.9184 46.6567 60.9056 46.0723C60.6118 45.9021 60.2754 45.8196 59.9361 45.8346C59.5969 45.8496 59.2691 45.9615 58.9915 46.157L56.5593 47.8633C56.4673 47.928 56.3554 47.9582 56.2433 47.9484C56.1312 47.9387 56.0262 47.8896 55.9468 47.81L54.1886 46.0518C54.1089 45.9723 54.0599 45.8673 54.0501 45.7552C54.0404 45.6432 54.0705 45.5313 54.1353 45.4393L55.8456 43.0002C56.0411 42.7226 56.153 42.3948 56.168 42.0556C56.1831 41.7164 56.1006 41.3799 55.9304 41.0861C55.3456 40.074 54.8957 38.9897 54.5919 37.8609C54.5027 37.535 54.3225 37.2413 54.0724 37.0142C53.8223 36.787 53.5126 36.6359 53.1796 36.5785L50.2483 36.0645C50.1377 36.0451 50.0373 35.9874 49.965 35.9013C49.8928 35.8153 49.8532 35.7065 49.8532 35.5941L49.8546 33.1059C49.8545 32.9935 49.8941 32.8847 49.9664 32.7987C50.0387 32.7126 50.139 32.6549 50.2497 32.6356L53.1796 32.1201C53.5129 32.0617 53.8226 31.9093 54.0723 31.681C54.322 31.4526 54.5013 31.1577 54.5892 30.8309C54.8931 29.7021 55.343 28.6179 55.9276 27.6057C56.0979 27.3119 56.1803 26.9754 56.1653 26.6362C56.1503 26.297 56.0384 25.9692 55.8429 25.6916L54.1366 23.2539C54.0719 23.1619 54.0417 23.05 54.0515 22.9379C54.0612 22.8259 54.1103 22.7208 54.19 22.6414L55.9495 20.8818C56.0289 20.8022 56.134 20.7531 56.246 20.7434C56.3581 20.7336 56.47 20.7638 56.562 20.8285L58.9997 22.5389C59.2773 22.7344 59.6051 22.8462 59.9443 22.8612C60.2836 22.8763 60.62 22.7938 60.9138 22.6236C61.926 22.039 63.0102 21.5891 64.139 21.2852C64.4658 21.1973 64.7607 21.018 64.9891 20.7683C65.2175 20.5186 65.3698 20.2089 65.4282 19.8756L65.9423 16.9443C65.9626 16.8356 66.02 16.7372 66.1048 16.6662C66.1896 16.5951 66.2965 16.5557 66.4071 16.5547H68.8941C69.0064 16.5546 69.1152 16.5942 69.2012 16.6665C69.2873 16.7388 69.345 16.8391 69.3644 16.9498L69.8784 19.8811C69.9368 20.2144 70.0892 20.5241 70.3176 20.7738C70.546 21.0235 70.8409 21.2028 71.1677 21.2906C72.2965 21.5944 73.3807 22.0444 74.3929 22.6291C74.6867 22.7993 75.0231 22.8818 75.3623 22.8668C75.7015 22.8517 76.0293 22.7399 76.3069 22.5443L78.746 20.834C78.838 20.7692 78.9499 20.7391 79.062 20.7488C79.1741 20.7586 79.2791 20.8076 79.3585 20.8873L81.1181 22.6469C81.1955 22.7266 81.2427 22.8309 81.2515 22.9418C81.2602 23.0526 81.2299 23.163 81.1659 23.2539L79.4556 25.6971C79.2601 25.9747 79.1482 26.3025 79.1331 26.6417C79.1181 26.9809 79.2006 27.3173 79.3708 27.6111C79.9553 28.6234 80.4052 29.7076 80.7093 30.8363C80.7971 31.1631 80.9764 31.458 81.2261 31.6864C81.4758 31.9148 81.7855 32.0672 82.1189 32.1256L85.0501 32.6397C85.1608 32.659 85.2611 32.7167 85.3334 32.8028C85.4057 32.8888 85.4453 32.9976 85.4452 33.11V35.5969Z" fill="#66CDAA"/>
<path d="M67.65 25.8584C62.9603 25.8584 59.1584 29.6603 59.1584 34.35C59.1638 39.0375 62.9625 42.8363 67.65 42.8416C72.3398 42.8416 76.1417 39.0397 76.1417 34.35C76.1417 29.6603 72.3398 25.8584 67.65 25.8584ZM67.65 39.2869C64.9235 39.2869 62.7131 37.0766 62.7131 34.35C62.7125 31.6221 64.9221 29.4093 67.65 29.4062V29.4131C70.3766 29.4131 72.587 31.6234 72.587 34.35C72.587 37.0766 70.3766 39.2869 67.65 39.2869Z" fill="#66CDAA"/>
</g>
<defs>
<clipPath id="clip0_0_1">
<rect width="70" height="70" fill="white" transform="translate(19 13)"/>
</clipPath>
</defs>
</svg>
