<svg width="108" height="96" viewBox="0 0 108 96" fill="none" xmlns="http://www.w3.org/2000/svg">
<path d="M86.9798 3.46945C91.1533 1.83725 95.5548 -1.03826 99.7872 0.382641C103.698 1.69546 107.939 5.8699 107.999 10.5262C108.073 16.1581 102.181 19.4874 100.103 24.595C99.0088 27.2846 99.2751 30.3544 98.7497 33.259C98.1398 36.6304 98.5226 40.4397 96.7355 43.2115C94.9413 45.9944 91.972 47.8103 88.9906 48.396C86.0711 48.9696 83.327 46.1999 80.3713 46.4264C76.8561 46.6958 73.7448 50.8991 70.3495 49.8246C67.1625 48.8161 66.0939 44.2002 64.024 41.2533C61.9397 38.2859 57.622 36.0576 58.0266 32.281C58.5094 27.7732 65.8445 26.9334 66.0436 22.3976C66.2831 16.9451 56.2425 12.6792 59.0802 8.28674C62.0017 3.76454 68.5843 10.8329 73.5036 10.8503C75.62 10.8578 77.4842 9.40377 79.3926 8.35851C82.0398 6.90865 84.2023 4.55564 86.9798 3.46945Z" fill="#F5F5F5" fill-opacity="0.960784"/>
<path d="M46.5306 74.9798C48.1627 79.1533 51.0383 83.5548 49.6174 87.7872C48.3045 91.6976 44.1301 95.9385 39.4738 95.9993C33.8419 96.0728 30.5126 90.1814 25.405 88.1032C22.7154 87.0088 19.6456 87.2751 16.741 86.7497C13.3696 86.1398 9.56027 86.5226 6.78847 84.7355C4.00556 82.9413 2.18972 79.972 1.604 76.9906C1.03043 74.0711 3.80008 71.327 3.57356 68.3713C3.30415 64.8561 -0.899086 61.7448 0.175354 58.3495C1.1839 55.1625 5.79984 54.0939 8.74669 52.024C11.7141 49.9397 13.9424 45.622 17.719 46.0266C22.2268 46.5094 23.0666 53.8445 27.6024 54.0436C33.0549 54.2831 37.3208 44.2425 41.7133 47.0802C46.2355 50.0017 39.1671 56.5843 39.1497 61.5036C39.1422 63.62 40.5962 65.4842 41.6415 67.3926C43.0913 70.0398 45.4444 72.2023 46.5306 74.9798Z" fill="#F5F5F5" fill-opacity="0.960784"/>
<path d="M48.2488 75.4694C36.4057 75.4387 29.5492 75.2952 26.3695 72.701C23.9495 70.7264 22.859 67.5595 22.8025 54.0031C22.7993 53.1142 22.0765 52.3963 21.1892 52.3963H21.1828C20.2922 52.3995 19.5727 53.1255 19.5759 54.016C19.6211 64.8217 19.9647 71.6411 24.3303 75.2016C28.3651 78.4927 35.3038 78.6621 48.2407 78.696H48.2456C49.1345 78.696 49.8572 77.9764 49.8588 77.0875C49.8605 76.197 49.1409 75.4726 48.2504 75.4694H48.2488ZM77.4944 42.4084C77.4976 43.2973 78.2187 44.0153 79.1076 44.0153H79.1141C80.0046 44.012 80.7241 43.2861 80.7209 42.3955C80.679 31.3107 80.3176 24.3284 75.6778 20.8308C71.3945 17.6026 64.3155 17.5881 50.2122 17.5574H50.2089C49.32 17.5574 48.5973 18.277 48.5956 19.1675C48.594 20.058 49.3152 20.7824 50.2057 20.784C63.17 20.8114 70.312 20.826 73.7354 23.4072C76.9184 25.8062 77.4508 30.9735 77.4944 42.4084ZM88.021 60.2191C87.9145 60.0997 85.3881 57.2474 82.1471 54.3516C77.5202 50.2183 73.9645 48.2098 71.2735 48.2098C68.5826 48.2098 65.0205 50.2183 60.3758 54.3499C57.1202 57.2458 54.5825 60.0964 54.4761 60.2158C53.9646 60.7902 53.9324 61.6468 54.3954 62.2599C55.5586 63.7989 57.3074 64.4862 60.4484 64.7943C60.4226 64.9089 60.4081 65.0266 60.4081 65.1492V76.6681H57.4671C56.5765 76.6681 55.8538 77.3908 55.8538 78.2814C55.8538 79.1719 56.5765 79.8946 57.4671 79.8946H85.0735C85.9641 79.8946 86.6868 79.1719 86.6868 78.2814C86.6868 77.3908 85.9641 76.6681 85.0735 76.6681H82.6827V65.1492C82.6827 65.004 82.6617 64.8653 82.6262 64.7314C85.4059 64.3958 87.0079 63.7021 88.0968 62.2615C88.3214 61.9646 88.4365 61.5992 88.4223 61.2272C88.4082 60.8553 88.2659 60.4996 88.0194 60.2207L88.021 60.2191ZM63.6266 64.9798C65.3286 65.0315 67.3226 65.0412 69.6667 65.0428C69.6651 65.0783 69.6619 65.1138 69.6619 65.1492V76.6681H63.6363V65.1492C63.6363 65.0928 63.633 65.0363 63.6266 64.9798ZM79.4577 65.1492V76.6681H72.8884V65.1492C72.8884 65.1138 72.8852 65.0783 72.8836 65.0428C75.4858 65.0412 77.6541 65.0282 79.4706 64.9589C79.4626 65.0218 79.4577 65.0847 79.4577 65.1492ZM71.2477 61.8162C64.2945 61.8162 60.0935 61.8162 58.0914 61.0612C59.1191 59.9819 60.7162 58.3654 62.5215 56.7586C64.3203 55.1582 68.7762 51.4347 71.2735 51.4347C74.3485 51.4347 80.5031 56.8892 84.4169 61.0547C82.4197 61.8146 78.2155 61.8146 71.2461 61.8146L71.2477 61.8162ZM21.87 47.2418H43.7381C44.6286 47.2418 45.3513 46.5191 45.3513 45.6285C45.3513 40.3305 45.3513 37.6702 43.438 35.9843C41.6134 34.3759 38.6691 34.3759 32.8048 34.3759C26.9406 34.3759 23.9947 34.3759 22.1717 35.9843C20.2584 37.6718 20.2584 40.3305 20.2584 45.6285C20.2584 46.5191 20.9811 47.2418 21.8716 47.2418H21.87ZM24.3029 38.4043C25.2127 37.6025 28.2328 37.6025 32.8032 37.6025C37.3737 37.6025 40.3937 37.6025 41.3036 38.4043C42.0054 39.0222 42.107 41.0049 42.1215 44.0153H23.4849C23.4994 41.0049 23.6011 39.0238 24.3029 38.4043ZM32.8048 31.9915C37.1849 31.9915 40.7486 28.4277 40.7486 24.0477C40.7486 19.6676 37.1849 16.1039 32.8048 16.1039C28.4248 16.1039 24.861 19.6676 24.861 24.0477C24.861 28.4277 28.4248 31.9915 32.8048 31.9915ZM32.8048 19.3321C35.4055 19.3321 37.5221 21.4487 37.5221 24.0493C37.5221 26.6499 35.4055 28.7665 32.8048 28.7665C30.2042 28.7665 28.0876 26.6499 28.0876 24.0493C28.0876 21.4487 30.2042 19.3321 32.8048 19.3321Z" fill="#66CDAA"/>
</svg>
