<svg width="720" height="384" viewBox="0 0 720 384" fill="none" xmlns="http://www.w3.org/2000/svg">
<g clip-path="url(#clip0_1629_872)">
<path d="M590.952 -65.7438C652.066 -40.4618 632.848 16.9296 657.991 58.1968C674.319 84.9947 721.373 107.907 713.884 136.019C705.578 167.199 616.255 179.128 617.371 210.678C618.683 247.765 725.342 266.022 719.791 302.974C715.399 332.208 639.919 337.05 596.228 351.428C556.671 364.445 518.972 384.573 473.608 383.988C427.646 383.395 385.488 366.458 351.59 348.272C322.505 332.669 332.175 296.169 295.127 288.236C239.659 276.36 176.165 310.942 120.825 298.862C70.9434 287.973 37.4524 257.315 19.2655 228.019C0.423435 197.667 -11.6462 159.665 17.3633 132.198C48.2605 102.944 113.604 91.0219 171.175 84.1873C219.869 78.4065 282.948 117.769 317.065 96.6191C378.324 58.6428 328.468 -15.0235 391.161 -52.1886C438.795 -80.4265 535.592 -88.6461 590.952 -65.7438Z" fill="url(#paint0_linear_1629_872)"/>
</g>
<defs>
<linearGradient id="paint0_linear_1629_872" x1="360" y1="-79" x2="360" y2="384" gradientUnits="userSpaceOnUse">
<stop stop-color="#2DBB8B"/>
<stop offset="0.536458" stop-color="#66CDAA"/>
</linearGradient>
<clipPath id="clip0_1629_872">
<rect width="720" height="384" fill="white"/>
</clipPath>
</defs>
</svg>
