<svg width="150" height="150" viewBox="0 0 150 150" fill="none" xmlns="http://www.w3.org/2000/svg">
<g filter="url(#filter0_b_0_1)">
<circle cx="75" cy="75" r="75" fill="white"/>
</g>
<path d="M119.643 33H30.3571C28.9363 33 27.5737 33.5597 26.5691 34.556C25.5644 35.5523 25 36.9035 25 38.3125V112.688C25 114.096 25.5644 115.448 26.5691 116.444C27.5737 117.44 28.9363 118 30.3571 118H119.643C121.064 118 122.426 117.44 123.431 116.444C124.436 115.448 125 114.096 125 112.688V38.3125C125 36.9035 124.436 35.5523 123.431 34.556C122.426 33.5597 121.064 33 119.643 33ZM91.8795 47.2109C94.0728 47.0116 96.2748 47.4875 98.1856 48.5738C100.096 49.66 101.623 51.3039 102.558 53.2815C103.493 55.2592 103.791 57.4745 103.411 59.6259C103.03 61.7773 101.991 63.7602 100.433 65.3046C98.8758 66.8491 96.8762 67.88 94.7068 68.2571C92.5373 68.6342 90.3034 68.339 88.3091 67.4119C86.3148 66.4848 84.6572 64.9707 83.5618 63.0758C82.4664 61.1808 81.9865 58.9972 82.1875 56.8221C82.416 54.3495 83.5105 52.0343 85.2809 50.2786C87.0514 48.5229 89.3861 47.4375 91.8795 47.2109ZM34.8214 110.917C34.111 110.917 33.4297 110.637 32.9274 110.139C32.4251 109.641 32.1429 108.965 32.1429 108.26V88.8632L60.8571 63.5469L82.4978 84.9629L56.3326 110.917H34.8214ZM117.857 108.26C117.857 108.965 117.575 109.641 117.073 110.139C116.57 110.637 115.889 110.917 115.179 110.917H66.4353L99.8125 77.8176L117.857 92.7302V108.26Z" fill="#757575"/>
<circle cx="130" cy="130" r="20" fill="white"/>
<path d="M130 110C118.972 110 110 118.972 110 130C110 141.028 118.972 150 130 150C141.028 150 150 141.028 150 130C150 118.972 141.028 110 130 110ZM139.231 131.538H131.538V139.231H128.462V131.538H120.769V128.462H128.462V120.769H131.538V128.462H139.231V131.538Z" fill="#757575"/>
<defs>
<filter id="filter0_b_0_1" x="-4" y="-4" width="158" height="158" filterUnits="userSpaceOnUse" color-interpolation-filters="sRGB">
<feFlood flood-opacity="0" result="BackgroundImageFix"/>
<feGaussianBlur in="BackgroundImageFix" stdDeviation="2"/>
<feComposite in2="SourceAlpha" operator="in" result="effect1_backgroundBlur_0_1"/>
<feBlend mode="normal" in="SourceGraphic" in2="effect1_backgroundBlur_0_1" result="shape"/>
</filter>
</defs>
</svg>
