<svg width="50" height="50" viewBox="0 0 50 50" fill="none" xmlns="http://www.w3.org/2000/svg">
<path d="M49.9941 12.5032C49.9811 9.05238 47.1732 6.26548 43.7225 6.27846C41.2676 6.28764 39.0456 7.73352 38.0428 9.97419L32.7084 9.08226L32.1867 12.1642L37.5476 13.0593C37.65 14.1996 38.0637 15.2898 38.7435 16.211C39.4234 17.1322 40.3433 17.8489 41.4028 18.2828L39.8814 29.7592C36.7476 30.1276 34.3828 32.7787 34.3735 35.934V35.9575L16.3646 40.7061C15.8908 39.8616 15.2264 39.1394 14.4242 38.597C13.622 38.0546 12.7042 37.707 11.744 37.582L8.55429 12.0533C10.0717 11.4489 11.2931 10.2758 11.958 8.78391L16.7863 9.58993L17.3002 6.50955L12.4485 5.69884C12.1536 2.26934 9.1342 -0.271733 5.7047 0.0233004C2.2752 0.318236 -0.265874 3.3375 0.0291598 6.767C0.280749 9.69215 2.53968 12.045 5.45204 12.4157L8.64488 37.9397C5.43593 39.2088 3.86323 42.8389 5.1323 46.0479C6.40138 49.2568 10.0315 50.8295 13.2405 49.5604C15.6266 48.6168 17.1932 46.3103 17.1909 43.7443V43.7209L35.1999 38.9722C36.8773 41.978 40.6738 43.0549 43.6796 41.3775C46.6854 39.7001 47.7622 35.9036 46.0849 32.8978C45.3912 31.6548 44.2929 30.6867 42.9727 30.1544L44.4941 18.678C47.6248 18.306 49.9853 15.6559 49.9941 12.5032ZM6.2565 9.37905C4.53111 9.37905 3.13238 7.98033 3.13238 6.25493C3.13238 4.52954 4.53111 3.13082 6.2565 3.13082C7.98189 3.13082 9.38061 4.52954 9.38061 6.25493C9.38061 7.98033 7.98189 9.37905 6.2565 9.37905ZM10.9427 46.8684C9.21728 46.8684 7.81856 45.4697 7.81856 43.7443C7.81856 42.0189 9.21728 40.6202 10.9427 40.6202C12.6681 40.6202 14.0668 42.0189 14.0668 43.7443C14.0668 45.4697 12.6681 46.8684 10.9427 46.8684ZM43.7459 35.934C43.7459 37.6594 42.3472 39.0581 40.6218 39.0581C38.8964 39.0581 37.4977 37.6594 37.4977 35.934C37.4977 34.2086 38.8964 32.8099 40.6218 32.8099C42.3472 32.8099 43.7459 34.2086 43.7459 35.934ZM40.6218 12.5032C40.6218 10.7778 42.0205 9.37905 43.7459 9.37905C45.4713 9.37905 46.87 10.7778 46.87 12.5032C46.87 14.2286 45.4713 15.6273 43.7459 15.6273C42.0205 15.6273 40.6218 14.2286 40.6218 12.5032Z" fill="white"/>
<path d="M26.5457 8.05391L29.6273 8.56822L29.113 11.6498L26.0315 11.1356L26.5457 8.05391ZM20.3739 7.02441L23.4552 7.53931L22.9404 10.6206L19.859 10.1058L20.3739 7.02441Z" fill="white"/>
</svg>
