<svg xmlns="http://www.w3.org/2000/svg" version="1.1" xmlns:xlink="http://www.w3.org/1999/xlink" xmlns:svgjs="http://svgjs.com/svgjs" width="512" height="512" x="0" y="0" viewBox="0 0 512 512" style="enable-background:new 0 0 512 512" xml:space="preserve" class=""><g><path d="M504.396 386.046h-50.102v-62.132a7.605 7.605 0 0 0-15.208 0v172.083H308.585V270.093h130.501v18.333a7.605 7.605 0 0 0 15.208 0V262.49a7.605 7.605 0 0 0-7.604-7.604H342.796V8.4a7.605 7.605 0 0 0-7.604-7.604H177.04a7.605 7.605 0 0 0-7.604 7.604v113.752H71.075a7.605 7.605 0 0 0-7.604 7.604V316.71H7.604A7.605 7.605 0 0 0 0 324.314V503.6a7.605 7.605 0 0 0 7.604 7.604h221.625l.019-.001h217.423l.019.001h57.706A7.605 7.605 0 0 0 512 503.6V393.65a7.605 7.605 0 0 0-7.604-7.604zM63.471 495.996H15.208V331.918h48.263v164.078zm158.154 0H177.04v.001H78.679v-42.049h142.946v42.048zm0-108.454h-68.531a7.605 7.605 0 0 0 0 15.208h68.531v35.99H78.679v-35.99h38.929a7.605 7.605 0 0 0 0-15.208H78.679v-35.99h142.946v35.99zm0-51.196H78.679v-35.991h142.946v35.991zm0-51.198H78.679v-35.989h142.946v35.989zm0-51.197H78.679v-35.99h142.946v35.99zm0-51.198H78.679v-45.394h142.946v45.394zm71.752 79.738v233.508h-56.544V129.755a7.604 7.604 0 0 0-7.604-7.604h-10.367v-15.207a7.604 7.604 0 0 0-15.208 0v15.207h-19.01V16.004h142.943v238.883H300.98a7.603 7.603 0 0 0-7.603 7.604zm203.415 233.505h-42.497v-94.743h42.497v94.743z" fill="#f3f3f3" data-original="#000000" opacity="1" class=""></path><path d="M300.981 165.543a7.604 7.604 0 0 0-7.604 7.604v22.811a7.604 7.604 0 0 0 15.208 0v-22.811a7.604 7.604 0 0 0-7.604-7.604zM256.12 165.543a7.604 7.604 0 0 0-7.604 7.604v22.811a7.604 7.604 0 0 0 15.208 0v-22.811a7.604 7.604 0 0 0-7.604-7.604zM300.981 99.34a7.604 7.604 0 0 0-7.604 7.604v22.811a7.605 7.605 0 0 0 15.208 0v-22.811a7.604 7.604 0 0 0-7.604-7.604zM256.12 99.34a7.604 7.604 0 0 0-7.604 7.604v22.811a7.605 7.605 0 0 0 15.208 0v-22.811a7.604 7.604 0 0 0-7.604-7.604zM211.258 33.137a7.604 7.604 0 0 0-7.604 7.604v22.811a7.605 7.605 0 0 0 15.208 0V40.741a7.603 7.603 0 0 0-7.604-7.604zM300.981 33.137a7.604 7.604 0 0 0-7.604 7.604v22.811a7.605 7.605 0 0 0 15.208 0V40.741a7.604 7.604 0 0 0-7.604-7.604zM256.12 33.137a7.604 7.604 0 0 0-7.604 7.604v22.811a7.605 7.605 0 0 0 15.208 0V40.741a7.604 7.604 0 0 0-7.604-7.604zM296.918 233.26c-3.077 1.936-4.372 5.964-2.957 9.326 1.215 2.868 4.073 4.766 7.202 4.689 3.188-.078 6.025-2.187 7.034-5.211 2.217-6.651-5.389-12.51-11.279-8.804zM256.12 232.075a7.604 7.604 0 0 0-7.604 7.604v22.811a7.604 7.604 0 0 0 15.208 0v-22.811c0-4.2-3.404-7.604-7.604-7.604zM256.12 431.671a7.604 7.604 0 0 0-7.604 7.604v22.811a7.605 7.605 0 0 0 15.208 0v-22.811c0-4.2-3.404-7.604-7.604-7.604zM256.12 365.139a7.604 7.604 0 0 0-7.604 7.604v22.811a7.605 7.605 0 0 0 15.208 0v-22.811a7.604 7.604 0 0 0-7.604-7.604zM256.12 298.608a7.604 7.604 0 0 0-7.604 7.604v22.811a7.605 7.605 0 0 0 15.208 0v-22.811c0-4.2-3.404-7.604-7.604-7.604zM415.897 429.355h-84.123a7.604 7.604 0 0 0 0 15.208h84.123a7.604 7.604 0 0 0 0-15.208zM415.897 465.299h-84.123a7.604 7.604 0 0 0 0 15.208h84.123a7.604 7.604 0 0 0 0-15.208zM415.897 393.413h-84.123a7.604 7.604 0 0 0 0 15.208h84.123a7.604 7.604 0 0 0 0-15.208zM415.897 285.583h-84.123a7.604 7.604 0 0 0 0 15.208h84.123a7.604 7.604 0 0 0 0-15.208zM415.897 357.469h-84.123a7.604 7.604 0 0 0 0 15.208h84.123a7.604 7.604 0 0 0 0-15.208zM415.897 321.527h-84.123a7.604 7.604 0 0 0 0 15.208h84.123a7.604 7.604 0 0 0 0-15.208zM39.339 344.004a7.604 7.604 0 0 0-7.604 7.604v19.769a7.604 7.604 0 0 0 15.208 0v-19.769a7.605 7.605 0 0 0-7.604-7.604zM39.339 396.469a7.604 7.604 0 0 0-7.604 7.604v19.769a7.604 7.604 0 0 0 15.208 0v-19.769c0-4.2-3.405-7.604-7.604-7.604zM39.339 448.934a7.604 7.604 0 0 0-7.604 7.604v19.769a7.604 7.604 0 0 0 15.208 0v-19.769c0-4.2-3.405-7.604-7.604-7.604zM475.544 419.501a7.604 7.604 0 0 0-7.604 7.604v21.52a7.604 7.604 0 0 0 15.208 0v-21.52a7.604 7.604 0 0 0-7.604-7.604zM453.251 147.293h-92.763a7.604 7.604 0 0 0 0 15.208h92.763a7.604 7.604 0 0 0 0-15.208zM482.145 179.228h-66.912a7.604 7.604 0 0 0 0 15.208h66.912a7.604 7.604 0 0 0 0-15.208zM136.941 57.571H70.029a7.604 7.604 0 0 0 0 15.208h66.912a7.604 7.604 0 0 0 0-15.208zM98.923 82.916H32.012a7.604 7.604 0 0 0 0 15.208h66.912a7.604 7.604 0 1 0-.001-15.208z" fill="#f3f3f3" data-original="#000000" opacity="1" class=""></path></g></svg>