<svg width="30" height="25" viewBox="0 0 30 25" fill="none" xmlns="http://www.w3.org/2000/svg">
<path d="M0 23.8636C0 24.165 0.112882 24.4541 0.313814 24.6672C0.514746 24.8803 0.787268 25 1.07143 25H28.9286C29.2127 25 29.4853 24.8803 29.6862 24.6672C29.8871 24.4541 30 24.165 30 23.8636V10.0852H0V23.8636ZM4.41964 14.0625C4.41964 13.9118 4.47608 13.7673 4.57655 13.6607C4.67702 13.5542 4.81328 13.4943 4.95536 13.4943H11.1161C11.2582 13.4943 11.3944 13.5542 11.4949 13.6607C11.5953 13.7673 11.6518 13.9118 11.6518 14.0625V18.608C11.6518 18.7586 11.5953 18.9032 11.4949 19.0097C11.3944 19.1163 11.2582 19.1761 11.1161 19.1761H4.95536C4.81328 19.1761 4.67702 19.1163 4.57655 19.0097C4.47608 18.9032 4.41964 18.7586 4.41964 18.608V14.0625ZM28.9286 0H1.07143C0.787268 0 0.514746 0.119724 0.313814 0.332833C0.112882 0.545943 0 0.834981 0 1.13636V5.82386H30V1.13636C30 0.834981 29.8871 0.545943 29.6862 0.332833C29.4853 0.119724 29.2127 0 28.9286 0Z" fill="#FED4DE"/>
</svg>
