<svg width="213" height="118" viewBox="0 0 213 118" fill="none" xmlns="http://www.w3.org/2000/svg">
<rect width="213" height="118" rx="10" fill="#EEEEEE" fill-opacity="0.933333"/>
<path d="M126.348 35.5649H87.6551C84.5362 35.5649 82 38.1003 82 41.2229V76.7836C82 79.9025 84.5362 82.4352 87.6551 82.4352H126.347C129.466 82.4352 132 79.9025 132 76.7836V41.2229C132 38.1003 129.466 35.5649 126.348 35.5649ZM114.333 43.9794C117.349 43.9794 119.795 46.4256 119.795 49.4415C119.795 52.4575 117.348 54.9036 114.333 54.9036C111.316 54.9036 108.87 52.4575 108.87 49.4415C108.87 46.4256 111.316 43.9794 114.333 43.9794ZM124.574 77.2077H90.2079C88.6994 77.2077 88.0275 76.1163 88.7076 74.7697L98.0816 56.2028C98.7608 54.8564 100.055 54.7363 100.972 55.9342L110.398 68.2523C111.315 69.4504 112.917 69.5523 113.977 68.4789L116.283 66.1439C117.343 65.0705 118.904 65.2034 119.769 66.4388L125.74 74.9681C126.603 76.2053 126.083 77.2077 124.574 77.2077Z" fill="#757575"/>
</svg>
