<svg width="44" height="50" viewBox="0 0 44 50" fill="none" xmlns="http://www.w3.org/2000/svg">
<path d="M25.9007 5.0098C25.9007 4.71994 26.0159 4.44195 26.2208 4.23699C26.4258 4.03203 26.7038 3.91689 26.9937 3.91689H27.2539C27.8575 3.91689 28.3468 4.40615 28.3468 5.0098C28.3468 5.61345 27.8575 6.10271 27.2539 6.10271H26.9937C26.7038 6.10271 26.4258 5.98757 26.2208 5.78261C26.0159 5.57765 25.9007 5.29966 25.9007 5.0098ZM27.4088 30.4159C27.4088 30.7058 27.524 30.9838 27.7289 31.1887C27.9339 31.3937 28.2119 31.5089 28.5018 31.5089H28.762C29.3656 31.5089 29.8549 31.0196 29.8549 30.4159C29.8549 29.8123 29.3656 29.323 28.762 29.323H28.5018C28.2119 29.323 27.9339 29.4382 27.7289 29.6431C27.524 29.8481 27.4088 30.1261 27.4088 30.4159ZM28.6319 25.4061C31.3942 25.4061 33.6416 27.6535 33.6416 30.4159C33.6416 32.803 31.9634 34.8056 29.7248 35.3056V38.6243C29.7248 38.9142 29.6097 39.1922 29.4047 39.3971C29.1998 39.6021 28.9218 39.7173 28.6319 39.7173C28.3421 39.7173 28.0641 39.6021 27.8591 39.3971C27.6542 39.1922 27.539 38.9142 27.539 38.6243V35.3056C25.3004 34.8057 23.622 32.8031 23.622 30.4159C23.622 27.6535 25.8694 25.4061 28.6319 25.4061ZM28.6319 27.592C27.0748 27.592 25.8078 28.8589 25.8078 30.4159C25.8078 31.973 27.0748 33.2399 28.6319 33.2399C30.189 33.2399 31.4558 31.973 31.4558 30.4159C31.4558 28.8589 30.189 27.592 28.6319 27.592ZM11.0299 15.8759C11.0299 13.1135 13.2775 10.8661 16.04 10.8661C18.8025 10.8661 21.0499 13.1135 21.0499 15.8759C21.0499 18.263 19.3715 20.2656 17.1329 20.7657V24.0843C17.1329 24.688 16.6436 25.1772 16.04 25.1772C15.4363 25.1772 14.9471 24.688 14.9471 24.0843V20.7657C12.7085 20.2657 11.0299 18.2631 11.0299 15.8759ZM13.2158 15.8759C13.2158 17.4331 14.4827 18.6999 16.04 18.6999C17.5971 18.6999 18.8641 17.4331 18.8641 15.8759C18.8641 14.3188 17.5971 13.052 16.04 13.052C14.4827 13.052 13.2158 14.3188 13.2158 15.8759ZM22.1139 5.0098C22.1139 2.2474 24.3613 0 27.1237 0C29.8862 0 32.1336 2.2474 32.1336 5.0098C32.1336 7.39685 30.4553 9.39943 28.2166 9.89962V13.2182C28.2166 13.8218 27.7274 14.3111 27.1237 14.3111C26.5201 14.3111 26.0308 13.8218 26.0308 13.2182V9.8995C23.7923 9.39943 22.1139 7.39685 22.1139 5.0098ZM24.2997 5.0098C24.2997 6.56696 25.5665 7.83377 27.1237 7.83377C28.6809 7.83377 29.9478 6.56696 29.9478 5.0098C29.9478 3.45264 28.6809 2.18583 27.1237 2.18583C25.5665 2.18583 24.2997 3.45264 24.2997 5.0098ZM40.5975 18.8916L38.7677 18.2293L37.2603 7.90675C37.0809 6.67759 36.4 5.65948 35.3428 5.04004C34.8218 4.73463 34.1524 4.90998 33.8474 5.43057C33.7749 5.55438 33.7274 5.69128 33.7077 5.83345C33.6881 5.97562 33.6966 6.12027 33.7328 6.25913C33.7691 6.398 33.8324 6.52836 33.919 6.64277C34.0057 6.75718 34.114 6.8534 34.2379 6.92592C34.7311 7.21506 35.0122 7.63899 35.0974 8.22248L36.6995 19.1924C36.728 19.388 36.8091 19.5722 36.934 19.7253C37.0589 19.8785 37.223 19.9949 37.4089 20.0622L39.8536 20.947C41.5294 21.5536 41.6945 21.9718 41.6512 22.2685L39.0212 40.2768C38.8976 41.1235 38.3397 41.6607 37.3627 41.8738L20.7858 45.49C20.6384 45.5221 20.5237 45.4978 20.3887 45.4064C20.0285 45.1625 19.7001 44.5311 19.59 43.8712L19.5017 43.3418C19.4754 43.1837 19.4147 43.0333 19.3237 42.9012C19.2328 42.7692 19.1139 42.6588 18.9755 42.5779C18.8371 42.497 18.6826 42.4475 18.5229 42.433C18.3633 42.4184 18.2024 42.4392 18.0517 42.4939L3.40503 47.795C3.19652 47.8708 2.93386 47.671 2.85821 47.6081C2.51017 47.3181 2.29086 46.84 2.3483 46.4959L7.42659 16.0808C7.55021 15.3398 7.95423 14.6368 8.34634 14.4803C8.47964 14.4271 8.60115 14.3482 8.70394 14.248C8.80674 14.1479 8.88879 14.0284 8.94542 13.8966C9.00205 13.7647 9.03215 13.623 9.034 13.4795C9.03585 13.336 9.00941 13.1935 8.95619 13.0602C8.73238 12.4995 8.09643 12.226 7.53613 12.4504C6.17751 12.9926 5.47489 14.4956 5.27063 15.7211L0.192345 46.1359C0.00569956 47.2542 0.503219 48.4913 1.45964 49.2878C2.02298 49.7569 2.66367 50 3.29974 50C3.58621 50 3.87195 49.9507 4.14906 49.8504L17.6124 44.9773C17.9152 45.9374 18.4678 46.7457 19.1628 47.2163C19.795 47.6444 20.5173 47.7858 21.2514 47.6257L37.8283 44.0095C39.7035 43.6005 40.9267 42.3551 41.1838 40.5927L43.8139 22.5845C44.1648 20.183 41.5731 19.2449 40.5975 18.8916ZM15.9103 16.9688H16.1703C16.7739 16.9688 17.2632 16.4796 17.2632 15.8759C17.2632 15.2723 16.7739 14.783 16.1703 14.783H15.9103C15.3066 14.783 14.8174 15.2723 14.8174 15.8759C14.8174 16.4796 15.3066 16.9688 15.9103 16.9688ZM13.8533 8.84945C13.9132 8.85948 13.9739 8.86452 14.0346 8.86451C14.5591 8.86451 15.0221 8.48588 15.1112 7.95144L15.6661 4.62837C15.7763 3.96813 16.1047 3.33679 16.4649 3.09283C16.6 3.00151 16.7152 2.97722 16.8621 3.00928L19.5692 3.59982C20.1592 3.7289 20.7413 3.35464 20.8699 2.76495C20.9986 2.17526 20.6248 1.59298 20.0351 1.46426L17.328 0.873725C16.5938 0.713673 15.8714 0.855024 15.2394 1.28308C14.3705 1.87143 13.724 2.98742 13.5102 4.26832L12.9554 7.59139C12.856 8.18678 13.2579 8.75012 13.8533 8.84945Z" fill="white"/>
</svg>
